<svg width="24" height="24" viewBox="0 0 24 24" fill="none" xmlns="http://www.w3.org/2000/svg">
<path d="M16.19 2H7.81C4.17 2 2 4.17 2 7.81V16.18C2 19.83 4.17 22 7.81 22H16.18C19.82 22 21.99 19.83 21.99 16.19V7.81C22 4.17 19.83 2 16.19 2ZM8.75 17.75C8.75 18.16 8.41 18.5 8 18.5C7.59 18.5 7.25 18.16 7.25 17.75V13.25C7.25 12.84 7.59 12.5 8 12.5C8.41 12.5 8.75 12.84 8.75 13.25V17.75ZM12.75 17.75C12.75 18.16 12.41 18.5 12 18.5C11.59 18.5 11.25 18.16 11.25 17.75V11.25C11.25 10.84 11.59 10.5 12 10.5C12.41 10.5 12.75 10.84 12.75 11.25V17.75ZM16.75 17.75C16.75 18.16 16.41 18.5 16 18.5C15.59 18.5 15.25 18.16 15.25 17.75V9.25C15.25 8.84 15.59 8.5 16 8.5C16.41 8.5 16.75 8.84 16.75 9.25V17.75Z" fill="#292D32"/>
</svg>
